<svg width="40" height="33" viewBox="0 0 40 33" fill="none" xmlns="http://www.w3.org/2000/svg">
<path d="M1.03589 13.4268L7.85393 17.0798V27.0275C7.85393 27.583 8.07994 28.1126 8.47546 28.4866C11.6543 31.3939 15.7539 33 20 33C24.2461 33 28.3457 31.3939 31.5245 28.4866C31.9201 28.1126 32.1461 27.583 32.1461 27.0275V17.0798L38.9641 13.4268C39.6003 13.0874 40 12.4086 40 11.6672C40 10.9258 39.6003 10.2492 38.9641 9.90767L20.8831 0.223725C20.3306 -0.0745751 19.6714 -0.0745751 19.1169 0.223725L1.03589 9.90767C0.399707 10.2514 0 10.9279 0 11.6672C0 12.4065 0.399707 13.0874 1.03589 13.4268ZM28.3101 26.1175C25.9328 28.0262 23.0093 29.0637 20 29.0637C16.9907 29.0637 14.0651 28.0262 11.6899 26.1175V19.1334L19.1169 23.1129C19.6694 23.409 20.3286 23.409 20.8831 23.1129L28.3101 19.1355V26.1175ZM19.9979 4.21619L33.9123 11.6694L19.9979 19.1226L6.08559 11.6694L19.9979 4.21619Z" fill="#F5821F"/>
</svg>
