<svg width="78" height="43" viewBox="0 0 78 43" fill="none" xmlns="http://www.w3.org/2000/svg">
<path fill-rule="evenodd" clip-rule="evenodd" d="M17.7436 20.5822C17.7436 18.0578 17.2559 16.1178 16.2833 14.7568C15.3052 13.3986 13.9111 12.7181 12.0899 12.7181C10.3348 12.7181 8.97096 13.3986 7.99562 14.7568C7.0864 15.9861 6.63179 17.9288 6.63179 20.5822C6.63179 23.0435 7.11946 24.8874 8.09481 26.1166C9.07015 27.4749 10.467 28.1554 12.2855 28.1554C13.9744 28.1554 15.3052 27.4749 16.2833 26.1166C17.2559 24.7584 17.7436 22.9145 17.7436 20.5822ZM6.62904 39.6113C6.62904 40.5168 6.30117 41.296 5.65369 41.9436C5.00346 42.5884 4.22374 42.9149 3.31452 42.9149H0V18.7382C0 14.208 1.33077 11.1156 3.99505 9.46653C6.65934 7.81469 9.55231 6.99151 12.674 6.99151C14.2968 6.99151 15.9389 7.29883 17.5948 7.91347C19.2534 8.52811 20.5704 9.41714 21.543 10.5833C23.4937 13.1077 24.469 16.3455 24.469 20.2913C24.469 24.3688 23.4937 27.6697 21.543 30.1941C19.5923 32.6554 17.0906 33.8847 14.035 33.8847C12.4122 33.8847 10.726 33.6185 9.4917 33.0341C8.19124 32.3893 6.62628 31.5414 6.62628 32.5786V39.6113H6.62904Z" fill="white"/>
<path fill-rule="evenodd" clip-rule="evenodd" d="M25.0724 0H28.5825C29.4918 0 30.2715 0.307319 30.9217 0.921958C31.5692 1.5366 31.8971 2.29666 31.8971 3.20216V33.3963H25.0724V0Z" fill="white"/>
<path fill-rule="evenodd" clip-rule="evenodd" d="M48.0812 20.3873C47.172 20.8401 45.9018 21.2599 44.279 21.6495L42.039 22.1352C40.8653 22.459 40.0222 22.8788 39.5014 23.3974C39.0468 24.1108 38.8182 24.8215 38.8182 25.5349C38.8182 26.5063 39.1102 27.2828 39.6971 27.8645C40.2812 28.3831 41.1243 28.6411 42.2319 28.6411C44.0503 28.6411 45.4803 28.1225 46.519 27.088C47.5577 26.0535 48.0784 24.6294 48.0784 22.8157V20.3873H48.0812ZM49.6406 32.3316C48.2768 33.0451 46.8303 33.4813 45.3039 33.6432C43.7748 33.8051 42.4275 33.8874 41.2593 33.8874C38.9201 33.8874 36.8702 33.2563 35.1179 31.9914C33.3628 30.7319 32.4867 28.6438 32.4867 25.7298C32.4867 23.0105 33.2802 21.0678 34.8727 19.9044C36.4652 18.7382 38.4958 17.9617 40.9672 17.5748C41.2923 17.5748 41.6808 17.5254 42.1382 17.4294C42.59 17.3334 43.1135 17.251 43.6976 17.1879C46.5575 16.801 47.9875 15.9586 47.9875 14.6635C47.9875 13.6922 47.4833 13.0611 46.4749 12.7702C45.4692 12.4794 44.5407 12.3339 43.6976 12.3339C42.7884 12.3339 41.9756 12.4629 41.262 12.7208C40.5457 12.9815 40.0249 13.4672 39.7026 14.1778H33.17C33.429 12.172 34.3409 10.5202 35.9004 9.22507C37.6555 7.73786 40.1572 6.99151 43.4083 6.99151C47.048 6.99151 49.7784 7.6089 51.5968 8.83543C53.4814 10.1306 54.4237 11.9415 54.4237 14.2739V23.1093C54.4237 25.6996 53.9498 27.7218 53.0102 29.1761C52.0624 30.6331 50.9411 31.6841 49.6406 32.3316Z" fill="white"/>
<path fill-rule="evenodd" clip-rule="evenodd" d="M77.763 33.2618H74.3521C73.374 33.2618 72.5777 32.9545 71.9606 32.3399C71.3434 31.7252 71.0348 30.9322 71.0348 29.9609V16.7571C71.0348 15.2041 70.5609 14.0736 69.6214 13.3602C68.6791 12.6495 67.6211 12.2928 66.4529 12.2928C65.282 12.2928 64.2432 12.6495 63.3313 13.3602C62.422 14.0736 61.9674 15.2041 61.9674 16.7571V33.2618H55.14V18.1154C55.14 13.7141 56.2945 10.7699 58.6033 9.27994C60.9094 7.79274 63.4608 6.98328 66.2573 6.85157C69.1172 6.85157 71.7484 7.59792 74.1537 9.08513C76.5563 10.5751 77.7603 13.5852 77.7603 18.1154L77.763 33.2618Z" fill="white"/>
<path fill-rule="evenodd" clip-rule="evenodd" d="M27.9571 41.5622H27.0672V39.3753C27.0672 39.1722 27.0038 39.0213 26.8798 38.9253C26.7558 38.832 26.6153 38.7826 26.461 38.7826C26.3067 38.7826 26.169 38.8292 26.0478 38.9253C25.9265 39.0186 25.8659 39.1695 25.8659 39.3753V41.5622H24.9622V39.5564C24.9622 38.9747 25.1137 38.5823 25.4196 38.3875C25.7254 38.1899 26.0615 38.0829 26.4335 38.0664C26.6291 38.0664 26.8247 38.0856 27.0121 38.1323C27.2022 38.1762 27.373 38.2612 27.5273 38.3902C27.6568 38.2777 27.8083 38.2009 27.9847 38.1515C28.161 38.1048 28.3428 38.0774 28.533 38.0692C28.9104 38.0692 29.2603 38.168 29.5772 38.3655C29.8968 38.5631 30.0566 38.9609 30.0566 39.5619V41.5677H29.6047C29.4752 41.5677 29.3705 41.5265 29.2879 41.4469C29.208 41.3646 29.1667 41.2576 29.1667 41.1314V39.3835C29.1667 39.1805 29.1033 39.0295 28.9793 38.9335C28.8526 38.8402 28.7148 38.7908 28.5605 38.7908C28.4062 38.7908 28.2657 38.8375 28.139 38.9335C28.015 39.0268 27.9516 39.1777 27.9516 39.3835V41.5622H27.9571Z" fill="white"/>
<path fill-rule="evenodd" clip-rule="evenodd" d="M33.0157 39.839C32.8945 39.8966 32.7264 39.9542 32.5115 40.0064L32.2139 40.0722C32.0596 40.1134 31.9467 40.171 31.8778 40.2396C31.8172 40.3357 31.7896 40.4289 31.7896 40.5222C31.7896 40.6512 31.8282 40.7555 31.9081 40.8323C31.9852 40.9009 32.0954 40.9338 32.2442 40.9338C32.4839 40.9338 32.6713 40.8652 32.8118 40.728C32.9496 40.5908 33.0184 40.4015 33.0184 40.1628V39.839H33.0157ZM33.2223 41.4195C33.0405 41.5128 32.8504 41.5704 32.6492 41.5924C32.4454 41.6143 32.269 41.6253 32.1147 41.6253C31.8034 41.6253 31.5334 41.5402 31.3019 41.3729C31.0705 41.2055 30.9548 40.9311 30.9548 40.5442C30.9548 40.1847 31.0595 39.9268 31.2716 39.7731C31.481 39.6195 31.751 39.5152 32.0762 39.4631C32.1202 39.4631 32.1726 39.4576 32.2332 39.4439C32.2938 39.4302 32.3599 39.4192 32.4371 39.4109C32.8173 39.3588 33.0074 39.2491 33.0074 39.0762C33.0074 38.9472 32.9413 38.8649 32.8063 38.8238C32.6713 38.7853 32.5528 38.7661 32.4371 38.7661C32.3159 38.7661 32.2084 38.7826 32.1147 38.8183C32.0183 38.8539 31.9494 38.917 31.9081 39.0103H31.043C31.0788 38.7469 31.1972 38.5274 31.4039 38.3545C31.6353 38.157 31.9659 38.0582 32.3958 38.0582C32.8779 38.0582 33.2389 38.1405 33.4813 38.3024C33.732 38.4725 33.856 38.714 33.856 39.0213V40.193C33.856 40.536 33.7927 40.8021 33.6687 40.9942C33.5419 41.1945 33.3931 41.3344 33.2223 41.4195Z" fill="white"/>
<path fill-rule="evenodd" clip-rule="evenodd" d="M34.7046 41.5622V39.9021C34.7046 39.5674 34.7542 39.2875 34.8534 39.0625C34.9526 38.8347 35.0876 38.6509 35.2612 38.5137C35.4237 38.3847 35.6166 38.2914 35.8343 38.2311C36.0547 38.1734 36.2806 38.1405 36.512 38.1405C36.5286 38.1405 36.5534 38.1405 36.5782 38.1405C36.6057 38.1405 36.625 38.1405 36.6415 38.1405V39.0542H36.344C36.0933 39.0542 35.9087 39.1146 35.7874 39.2326C35.6662 39.3533 35.6083 39.5427 35.6083 39.7978V41.5594H34.7046V41.5622Z" fill="white"/>
<path fill-rule="evenodd" clip-rule="evenodd" d="M38.3553 38.1405V39.4L39.4519 38.1405H40.5374L39.3113 39.4521L40.5512 41.5594H39.4656L38.8347 40.4015C38.7052 40.171 38.5922 40.0722 38.4986 40.1052C38.4049 40.1408 38.358 40.193 38.358 40.2588V41.5594H37.4543V37.1362H37.92C38.0412 37.1362 38.1431 37.1801 38.2285 37.2652C38.314 37.353 38.358 37.449 38.358 37.5615V38.1405H38.3553Z" fill="white"/>
<path fill-rule="evenodd" clip-rule="evenodd" d="M42.2649 39.5042H43.5847C43.5681 39.2738 43.5075 39.1009 43.4028 38.9911C43.2899 38.8704 43.1328 38.81 42.9262 38.81C42.7361 38.81 42.5818 38.8704 42.4605 38.9911C42.3393 39.1091 42.2732 39.282 42.2649 39.5042ZM43.8134 40.5058H44.4581C44.3616 40.8652 44.1825 41.1396 43.9153 41.3289C43.648 41.5265 43.3119 41.6253 42.9069 41.6253C42.4165 41.6253 42.0335 41.4689 41.758 41.1506C41.4824 40.8433 41.3447 40.4015 41.3447 39.8253C41.3447 39.2765 41.4797 38.8484 41.7469 38.5384C42.0225 38.2228 42.4054 38.0637 42.8959 38.0637C43.4138 38.0637 43.8106 38.2173 44.0971 38.5274C44.3727 38.843 44.5104 39.2847 44.5104 39.8527C44.5104 39.8857 44.5104 39.9158 44.5104 39.9433C44.5104 39.9707 44.5104 39.9872 44.5104 39.9954C44.5104 40.0393 44.5049 40.0695 44.4966 40.0832H42.2622C42.2704 40.3494 42.3366 40.5469 42.455 40.6759C42.568 40.8131 42.7333 40.8817 42.9592 40.8817C43.1053 40.8817 43.2292 40.8515 43.3339 40.7939C43.3587 40.7857 43.3835 40.7719 43.4056 40.7472C43.4249 40.7253 43.4524 40.7006 43.4745 40.6759C43.4827 40.6485 43.5158 40.6155 43.5736 40.5716C43.6315 40.5277 43.7114 40.5058 43.8134 40.5058Z" fill="white"/>
<path fill-rule="evenodd" clip-rule="evenodd" d="M46.8992 41.5622C46.6154 41.5786 46.3068 41.5759 45.9762 41.5485C45.6456 41.5238 45.4803 41.3125 45.4803 40.9201V37.139H45.9459C46.0561 37.139 46.1553 37.1829 46.2407 37.2679C46.3289 37.3558 46.3702 37.4573 46.3702 37.578V38.157H46.8992V38.3381C46.8992 38.4643 46.8551 38.5686 46.7697 38.6536C46.6815 38.7332 46.5796 38.7744 46.4584 38.7744H46.3674V40.6786C46.3674 40.8241 46.4528 40.8954 46.6264 40.8954H46.8992V41.5622Z" fill="white"/>
<path fill-rule="evenodd" clip-rule="evenodd" d="M47.7726 38.1405H48.2382C48.3594 38.1405 48.4614 38.1844 48.5468 38.2695C48.6322 38.3545 48.6763 38.4588 48.6763 38.5768V41.5594H47.7726V38.1405ZM47.7726 37.1362H48.2382C48.3594 37.1362 48.4614 37.1801 48.5468 37.2652C48.6322 37.353 48.6763 37.4545 48.6763 37.5753V37.8469H47.7726V37.1362Z" fill="white"/>
<path fill-rule="evenodd" clip-rule="evenodd" d="M52.4316 41.5622H51.9825C51.8531 41.5622 51.7484 41.521 51.6657 41.4415C51.583 41.3591 51.5417 41.2521 51.5417 41.1259V39.378C51.5417 39.175 51.4783 39.0241 51.3544 38.928C51.2304 38.8347 51.0899 38.7853 50.9356 38.7853C50.7813 38.7853 50.6435 38.832 50.5195 38.928C50.4011 39.0213 50.3404 39.1722 50.3404 39.378V41.5649H49.4367V39.5591C49.4367 38.9774 49.5883 38.585 49.8941 38.3902C50.1999 38.1926 50.5388 38.0856 50.908 38.0692C51.2855 38.0692 51.6354 38.168 51.9522 38.3655C52.2718 38.5631 52.4289 38.9609 52.4289 39.5619V41.5622H52.4316Z" fill="white"/>
<path fill-rule="evenodd" clip-rule="evenodd" d="M54.0958 39.8774C54.0958 40.4701 54.2666 40.7966 54.611 40.8625C54.9554 40.9283 55.2089 40.846 55.3742 40.6238C55.4514 40.5277 55.5065 40.3796 55.5423 40.1792C55.5781 39.9762 55.5781 39.7786 55.5478 39.5811C55.5175 39.3835 55.4458 39.2079 55.3356 39.0542C55.2227 38.8978 55.0601 38.821 54.8452 38.821C54.5504 38.821 54.352 38.9308 54.2501 39.142C54.1454 39.3588 54.0958 39.603 54.0958 39.8774ZM55.5671 41.3564V41.1369C55.4128 41.3783 55.2034 41.5293 54.9416 41.5869C54.6771 41.6472 54.4182 41.6253 54.1619 41.5238C53.9029 41.4195 53.6825 41.2302 53.4979 40.953C53.3133 40.6732 53.2196 40.3082 53.2196 39.8527C53.2196 39.3204 53.3409 38.8896 53.5861 38.5603C53.8313 38.2283 54.2253 38.0637 54.7681 38.0637C55.1813 38.0637 55.5643 38.1734 55.917 38.3984C56.2697 38.6207 56.446 39.0323 56.446 39.6332V41.4469C56.446 42.0479 56.2697 42.4567 55.917 42.6735C55.5671 42.893 55.1813 43 54.7681 43C53.9746 43 53.4841 42.6323 53.2968 41.8942H54.2391C54.3107 42.0149 54.4154 42.1055 54.5559 42.1713C54.6992 42.2372 54.8425 42.2509 54.983 42.2235C55.1262 42.1933 55.2557 42.111 55.3715 41.9738C55.4817 41.8366 55.5478 41.6308 55.5671 41.3564Z" fill="white"/>
<path fill-rule="evenodd" clip-rule="evenodd" d="M60.3253 39.8253C60.3253 40.1683 60.3887 40.4289 60.5182 40.61C60.6477 40.7911 60.8295 40.8789 61.0747 40.8789C61.3062 40.8789 61.488 40.7911 61.6148 40.61C61.7388 40.4289 61.7966 40.1683 61.7966 39.8253C61.7966 39.5152 61.7332 39.271 61.6037 39.0927C61.466 38.9225 61.2814 38.8347 61.0472 38.8347C60.824 38.8347 60.6477 38.9253 60.5182 39.1064C60.3914 39.2765 60.3253 39.518 60.3253 39.8253ZM61.7966 37.1253H62.2374C62.3614 37.1253 62.4634 37.1692 62.5488 37.2597C62.6342 37.3503 62.6783 37.4518 62.6783 37.5615V40.0695C62.6783 40.6786 62.5019 41.0902 62.1493 41.3043C61.7966 41.5183 61.4136 41.6253 61.0004 41.6253C60.7772 41.6253 60.5568 41.5896 60.3419 41.5155C60.1269 41.4415 59.9534 41.3235 59.8239 41.1616C59.5732 40.8433 59.4492 40.4097 59.4492 39.861C59.4492 39.3204 59.5732 38.8869 59.8239 38.5631C60.0829 38.2283 60.4135 38.0609 60.8185 38.0609C61.0334 38.0609 61.2235 38.1021 61.3861 38.1899C61.5597 38.2914 61.6947 38.4259 61.7966 38.5878V37.1253Z" fill="white"/>
<path fill-rule="evenodd" clip-rule="evenodd" d="M63.6288 38.1405H64.0945C64.2157 38.1405 64.3176 38.1844 64.403 38.2695C64.4884 38.3545 64.5325 38.4588 64.5325 38.5768V41.5594H63.6288V38.1405ZM63.6288 37.1362H64.0945C64.2157 37.1362 64.3176 37.1801 64.403 37.2652C64.4884 37.353 64.5325 37.4545 64.5325 37.5753V37.8469H63.6288V37.1362Z" fill="white"/>
<path fill-rule="evenodd" clip-rule="evenodd" d="M66.092 39.8774C66.092 40.4701 66.2656 40.7966 66.61 40.8625C66.9544 40.9283 67.2078 40.846 67.3704 40.6238C67.4475 40.5277 67.5054 40.3796 67.5385 40.1792C67.5743 39.9762 67.5743 39.7786 67.544 39.5811C67.5137 39.3835 67.442 39.2079 67.3318 39.0542C67.2189 38.8978 67.0563 38.821 66.8414 38.821C66.5493 38.821 66.351 38.9308 66.249 39.142C66.1443 39.3588 66.092 39.603 66.092 39.8774ZM67.5633 41.3564V41.1369C67.409 41.3783 67.1996 41.5293 66.9378 41.5869C66.6733 41.6472 66.4143 41.6253 66.1553 41.5238C65.8991 41.4195 65.6732 41.2302 65.4886 40.953C65.304 40.6732 65.2131 40.3082 65.2131 39.8527C65.2131 39.3204 65.3371 38.8896 65.5823 38.5603C65.8275 38.2283 66.2215 38.0637 66.7643 38.0637C67.1775 38.0637 67.5605 38.1734 67.9132 38.3984C68.2658 38.6207 68.4422 39.0323 68.4422 39.6332V41.4469C68.4422 42.0479 68.2658 42.4567 67.9132 42.6735C67.5578 42.893 67.1748 43 66.7643 43C65.9735 43 65.4831 42.6323 65.293 41.8942H66.2353C66.3041 42.0149 66.4116 42.1055 66.5521 42.1713C66.6954 42.2372 66.8359 42.2509 66.9792 42.2235C67.1224 42.1933 67.2492 42.111 67.3676 41.9738C67.4779 41.8366 67.5467 41.6308 67.5633 41.3564Z" fill="white"/>
<path fill-rule="evenodd" clip-rule="evenodd" d="M69.3955 38.1405H69.8611C69.9823 38.1405 70.087 38.1844 70.1724 38.2695C70.2579 38.3545 70.2992 38.4588 70.2992 38.5768V41.5594H69.3955V38.1405ZM69.3955 37.1362H69.8611C69.9823 37.1362 70.087 37.1801 70.1724 37.2652C70.2579 37.353 70.2992 37.4545 70.2992 37.5753V37.8469H69.3955V37.1362Z" fill="white"/>
<path fill-rule="evenodd" clip-rule="evenodd" d="M72.5805 41.5622C72.2967 41.5786 71.9881 41.5759 71.6575 41.5485C71.3241 41.5238 71.1588 41.3125 71.1588 40.9201V37.139H71.6217C71.7347 37.139 71.8338 37.1829 71.9193 37.2679C72.0074 37.3558 72.0487 37.4573 72.0487 37.578V38.157H72.5778V38.3381C72.5778 38.4643 72.5337 38.5686 72.4482 38.6536C72.3601 38.7332 72.2581 38.7744 72.1369 38.7744H72.046V40.6786C72.046 40.8241 72.1314 40.8954 72.305 40.8954H72.575V41.5622H72.5805Z" fill="white"/>
<path fill-rule="evenodd" clip-rule="evenodd" d="M75.3688 39.839C75.2503 39.8966 75.0795 39.9542 74.8646 40.0064L74.567 40.0722C74.4127 40.1134 74.2998 40.171 74.2309 40.2396C74.1703 40.3357 74.1399 40.4289 74.1399 40.5222C74.1399 40.6512 74.1785 40.7555 74.2584 40.8323C74.3356 40.9009 74.4458 40.9338 74.5946 40.9338C74.8343 40.9338 75.0216 40.8652 75.1621 40.728C75.2971 40.5908 75.3688 40.4015 75.3688 40.1628V39.839ZM75.5727 41.4195C75.3908 41.5128 75.2007 41.5704 74.9996 41.5924C74.7957 41.6143 74.6194 41.6253 74.4623 41.6253C74.1537 41.6253 73.881 41.5402 73.6468 41.3729C73.4153 41.2055 73.2996 40.9311 73.2996 40.5442C73.2996 40.1847 73.4043 39.9268 73.6137 39.7731C73.8259 39.6195 74.0931 39.5152 74.421 39.4631C74.4623 39.4631 74.5147 39.4576 74.578 39.4439C74.6386 39.4302 74.7048 39.4192 74.7847 39.4109C75.1649 39.3588 75.3522 39.2491 75.3522 39.0762C75.3522 38.9472 75.2834 38.8649 75.1511 38.8238C75.0161 38.7853 74.8949 38.7661 74.7819 38.7661C74.6607 38.7661 74.5532 38.7826 74.4596 38.8183C74.3631 38.8539 74.297 38.917 74.2529 39.0103H73.3878C73.4208 38.7469 73.5448 38.5274 73.7487 38.3545C73.9829 38.157 74.3135 38.0582 74.7433 38.0582C75.2255 38.0582 75.5864 38.1405 75.8289 38.3024C76.0796 38.4725 76.2036 38.714 76.2036 39.0213V40.193C76.2036 40.536 76.143 40.8021 76.0162 40.9942C75.895 41.1945 75.7462 41.3344 75.5727 41.4195Z" fill="white"/>
<path fill-rule="evenodd" clip-rule="evenodd" d="M77.0963 37.1362H77.5592C77.6804 37.1362 77.7851 37.1774 77.8705 37.2597C77.9559 37.342 78 37.4436 78 37.5615V41.5594H77.0963V37.1362Z" fill="white"/>
</svg>
